# xmcd
#
# Track frame offsets: 
#        150
#        14320
#        26277
#        40155
#        51760
#        65627
#        78267
#        92097
#        103550
#        116365
#        130357
#        143422
#        155735
#        167672
#        181930
#        196787
#
# Disc length: 2813 seconds
#
# Revision: 7
# Processed by: cddbd v1.5.2PL0 Copyright (c) Steve Scherf et al.
# Submitted via: ExactAudioCopyFreeDBPlugin 1.0
#
DISCID=c50afb10
DTITLE=Ella Fitzgerald - My Man
DYEAR=2003
DGENRE=Jazz
TTITLE0=Goodnight My Love
TTITLE1=I'm The Lonliest Gal In Town
TTITLE2=You Can't Be Mine And Somebody Else's Too
TTITLE3=Three Little Words
TTITLE4=Keep Cool Fool
TTITLE5=Ella
TTITLE6=My Man
TTITLE7=I Can't Believe That You're In Love With Me
TTITLE8=Strictly From Dixie
TTITLE9=I Must Have That Man
TTITLE10=Who Is Me
TTITLE11=Melinda The Mousie
TTITLE12=When My Sugar Walks Down The Street
TTITLE13=Love, You're Just A Laugh
TTITLE14=Stairway To The Stars
TTITLE15=That's All Brother
EXTD=
EXTT0=
EXTT1=
EXTT2=
EXTT3=
EXTT4=
EXTT5=
EXTT6=
EXTT7=
EXTT8=
EXTT9=
EXTT10=
EXTT11=
EXTT12=
EXTT13=
EXTT14=
EXTT15=
PLAYORDER=
